<?xml version="1.0" encoding="UTF-8"?>
<svg width="38px" height="38px" viewBox="0 0 38 38" version="1.1" xmlns="http://www.w3.org/2000/svg" xmlns:xlink="http://www.w3.org/1999/xlink">
    <!-- Generator: Sketch 53.2 (72643) - https://sketchapp.com -->
    <title>Oval</title>
    <desc>Created with Sketch.</desc>
    <defs>
        <path d="M15.9999999,7.60000012 L8.00000006,12.0000001 L8.00000001,7.60000001 L1.28543975e-07,12 L0,-1.73194792e-14 L7.99999998,5.20000001 L7.99999993,1.04903716e-07 L15.9999999,5.20000013 L15.9999999,1.0024734 C15.9999999,0.448822687 16.4438648,1.04903734e-07 16.9999999,1.04903734e-07 C17.5522847,1.04903734e-07 17.9999999,0.455761061 17.9999999,1.0024734 L17.9999999,10.9975268 C17.9999999,11.5511775 17.5561351,12.0000001 16.9999999,12.0000001 C16.4477152,12.0000001 15.9999999,11.5442391 15.9999999,10.9975268 L15.9999999,7.60000012 Z" id="path-1"></path>
        <filter x="-8.3%" y="-19.5%" width="116.7%" height="137.8%" filterUnits="objectBoundingBox" id="filter-2">
            <feMorphology radius="0.5" operator="dilate" in="SourceAlpha" result="shadowSpreadOuter1"></feMorphology>
            <feOffset dx="0" dy="0" in="shadowSpreadOuter1" result="shadowOffsetOuter1"></feOffset>
            <feColorMatrix values="0 0 0 0 0   0 0 0 0 0   0 0 0 0 0  0 0 0 0.1 0" type="matrix" in="shadowOffsetOuter1"></feColorMatrix>
        </filter>
    </defs>
    <g id="Oval" stroke="none" stroke-width="1" fill="none" fill-rule="evenodd">
        <path d="M19,38 C8.50658975,38 0,29.4934102 0,19 C0,8.50658975 8.50658975,0 19,0 C29.4934102,0 38,8.50658975 38,19 C38,29.4934102 29.4934102,38 19,38 Z" id="Path" fill="#FFFFFF" fill-rule="nonzero"></path>
        <circle stroke="#FFFFFF" stroke-width="3" fill="#3697ED" cx="19" cy="19" r="17.5"></circle>
        <g id="Next" transform="translate(10.000000, 13.000000)" opacity="0.9">
            <g id="Rectangle-2-Copy">
                <use fill="black" fill-opacity="1" filter="url(#filter-2)" xlink:href="#path-1"></use>
                <use fill="#FFFFFF" fill-rule="evenodd" xlink:href="#path-1"></use>
            </g>
        </g>
    </g>
</svg>