<?xml version="1.0" encoding="UTF-8"?>
<svg width="21px" height="14px" viewBox="0 0 21 14" version="1.1" xmlns="http://www.w3.org/2000/svg" xmlns:xlink="http://www.w3.org/1999/xlink">
    <!-- Generator: Sketch 49 (51002) - http://www.bohemiancoding.com/sketch -->
    <title>Shape</title>
    <desc>Created with Sketch.</desc>
    <defs></defs>
    <g id="Page-1" stroke="none" stroke-width="1" fill="none" fill-rule="evenodd">
        <g id="lk_12" transform="translate(-84.000000, -407.000000)" fill="#A8AAB7" fill-rule="nonzero">
            <g id="Group-Copy" transform="translate(69.000000, 369.000000)">
                <path d="M36,40.5514223 L36,49.4398249 C36,50.1269147 35.2688921,50.5557987 34.6840057,50.214442 L31.0456686,48.0787746 L31.0456686,48.6870897 C31.0456686,50.5164114 29.5877534,52 27.7900881,52 L18.2555806,52 C16.4579152,52 15,50.5164114 15,48.6870897 L15,41.3129103 C15,39.4835886 16.4579152,38 18.2555806,38 L27.7943887,38 C29.5920541,38 31.0499693,39.4835886 31.0499693,41.3129103 L31.0499693,41.9212254 L34.6883064,39.785558 C35.2688921,39.4354486 36,39.868709 36,40.5514223 Z" id="Shape"></path>
            </g>
        </g>
    </g>
</svg>